<svg width="510" height="494" viewBox="0 0 510 494" fill="none" xmlns="http://www.w3.org/2000/svg">
<path d="M380.648 36.0016C345.038 22.9416 313.108 34.2716 299.908 40.3316L295.078 42.4516L316.908 76.4046L347.598 87.4206C352.831 86.7426 369.822 84.5436 375.858 83.7706C401.222 80.5036 405.878 44.9816 380.648 36.0016Z" fill="#D8BD8A"/>
<path d="M471.278 183.701C445.351 156.449 455.354 139.79 429.078 113.251C395.195 79.0304 347.498 87.4274 347.598 87.4214H347.578L426.428 292.761C424.757 299.336 422.272 307.17 419.328 314.841C412.532 332.526 423.389 352.703 442.548 355.271C461.878 358.101 475.018 344.761 476.248 343.481C514.366 298.835 515.982 230.597 471.278 183.701Z" fill="#D8BD8A"/>
<path d="M40.5072 463.382C46.1074 463.382 50.6472 458.842 50.6472 453.242C50.6472 447.641 46.1074 443.102 40.5072 443.102C34.907 443.102 30.3672 447.641 30.3672 453.242C30.3672 458.842 34.907 463.382 40.5072 463.382Z" fill="white"/>
<path d="M123.047 420.901L102.977 440.971L69.3073 424.671L52.7773 390.771L72.8473 370.701L102.977 386.671L123.047 420.901Z" fill="white"/>
<path d="M106.339 157.911C111.569 152.681 120.059 152.681 125.289 157.911L130.159 162.781L258.242 246.871L330.969 363.591L335.839 368.461C341.069 373.691 341.069 382.181 335.839 387.411L290.239 433.011C285.009 438.241 276.519 438.241 271.289 433.011C123.117 324.072 144.699 339.939 142.509 338.329L62.0189 223.741L60.7389 222.461C55.5089 217.231 55.5089 208.741 60.7389 203.511C71.5789 192.671 95.5509 168.698 106.339 157.911Z" fill="#D8BD8A"/>
<path d="M102.98 440.97L65.6103 478.34C51.7393 492.211 29.2713 492.201 15.4103 478.34C1.54031 464.48 1.54031 442 15.4103 428.14L52.7803 390.77L102.98 440.97ZM47.6803 460.41C51.6403 456.45 51.6403 450.03 47.6803 446.07C43.7203 442.11 37.3003 442.11 33.3403 446.07C29.3803 450.03 29.3803 456.45 33.3403 460.41C37.3003 464.37 43.7203 464.37 47.6803 460.41ZM270.01 431.73L258.83 442.91C246.74 454.99 227.59 456.29 213.99 445.95L172.97 414.78C158.72 403.94 138.65 405.31 125.98 417.97L123.05 420.9L72.8503 370.7L75.7803 367.77C88.4403 355.1 89.8103 335.03 78.9703 320.78L47.8003 279.76C37.4603 266.16 38.7603 247.01 50.8403 234.92L62.0203 223.74L270.01 431.73ZM130.16 162.78L244.91 5C281.033 30.227 315.112 57.581 347.6 87.42H347.58C381.69 127.85 423.07 153.67 431.33 227.24C434.057 251.571 431.144 277.12 425.96 294.5C394.3 317.54 362.63 340.56 330.97 363.59C324.486 357.106 142.335 174.956 130.16 162.78Z" fill="white"/>
<path d="M267.756 436.544L57.2061 225.994C50.0151 218.805 50.0141 207.166 57.2061 199.973L102.803 154.376C109.975 147.202 121.65 147.203 128.824 154.375L339.374 364.926C346.565 372.115 346.566 383.755 339.374 390.947L293.777 436.543C286.588 443.735 274.947 443.736 267.756 436.544ZM109.873 161.447C63.6611 208.848 61.8161 206.82 61.8161 212.984C61.8161 219.596 53.5871 206.95 274.826 429.473C278.109 432.754 283.423 432.757 286.705 429.473C333.111 381.875 334.763 384.084 334.763 377.937C334.763 371.323 342.992 383.97 121.753 161.447C118.476 158.172 113.149 158.174 109.873 161.447Z" fill="#4F3130"/>
<path d="M11.871 481.878C-3.956 466.053 -3.958 440.432 11.871 424.605L72.245 364.231C83.086 353.389 84.266 336.009 74.988 323.802L43.816 282.785C32.022 267.267 33.521 245.172 47.304 231.389L58.488 220.205C60.439 218.252 63.607 218.252 65.558 220.205C286.066 441.496 275.008 427.779 275.008 431.725C275.008 435.255 272.452 435.758 262.359 446.445C248.579 460.227 226.482 461.727 210.963 449.932L169.947 418.76C157.741 409.485 140.361 410.663 129.517 421.503L69.143 481.877C53.318 497.705 27.698 497.707 11.871 481.878ZM62.023 230.812L54.375 238.459C44.111 248.723 42.995 265.178 51.777 276.733L82.949 317.75C95.238 333.918 93.676 356.939 79.315 371.3L18.941 431.674C7.049 443.566 7.049 462.915 18.941 474.807C30.834 486.698 50.181 486.698 62.074 474.807L122.448 414.433C136.806 400.073 159.831 398.51 175.999 410.799L217.015 441.971C228.571 450.751 245.025 449.638 255.289 439.373L262.937 431.725L62.023 230.812Z" fill="#4F3130"/>
<path d="M29.7991 463.949C23.8951 458.046 23.8951 448.438 29.7991 442.535C35.7031 436.631 45.3091 436.631 51.2131 442.535C57.1171 448.438 57.1171 458.046 51.2131 463.949C45.3081 469.855 35.7041 469.854 29.7991 463.949ZM36.8701 449.605C34.8691 451.608 34.8531 454.86 36.8701 456.878C38.8731 458.879 42.1251 458.895 44.1431 456.878C46.1441 454.875 46.1601 451.623 44.1431 449.605C42.1401 447.604 38.8881 447.589 36.8701 449.605ZM330.969 368.591C327.002 368.591 340.33 379.2 126.622 166.317C124.882 164.578 124.666 161.831 126.113 159.841L240.863 2.06071C242.465 -0.14329 245.535 -0.65929 247.769 0.90171C283.848 26.0937 318.542 53.9347 350.892 83.6567C354.344 86.6747 352.23 92.4207 347.608 92.4207C347.507 92.4017 345.757 92.5197 344.215 91.1027C313.367 62.7547 280.365 36.1327 246.059 11.9187L136.714 162.267L331.482 357.034C387.344 316.409 402.785 305.18 423.015 290.458C425.248 288.833 428.375 289.326 430 291.559C431.625 293.792 431.132 296.919 428.899 298.544C409.069 312.975 389.236 327.398 369.404 341.819C332.188 368.452 333.937 368.591 330.969 368.591ZM244.953 370.717L216.973 342.737C215.02 340.785 215.02 337.619 216.973 335.667C218.924 333.714 222.092 333.714 224.043 335.667L252.023 363.647C253.976 365.599 253.976 368.765 252.023 370.717C250.072 372.67 246.904 372.67 244.953 370.717ZM195.842 321.606L69.2421 195.005C67.2891 193.053 67.2891 189.887 69.2421 187.935C71.1931 185.982 74.3611 185.982 76.3121 187.935L202.912 314.536C204.865 316.488 204.865 319.654 202.912 321.606C200.961 323.559 197.793 323.56 195.842 321.606Z" fill="#4F3130"/>
<path d="M309.505 349.199C307.552 347.247 307.552 344.081 309.505 342.129L396.41 255.223C398.361 253.27 401.529 253.27 403.48 255.223C405.433 257.175 405.433 260.341 403.48 262.293L316.575 349.199C314.625 351.152 311.457 351.152 309.505 349.199ZM289.475 327.099C285.068 327.099 282.774 321.728 285.94 318.564L341.738 262.767C343.689 260.814 346.857 260.814 348.808 262.767C350.761 264.719 350.761 267.885 348.808 269.837L293.01 325.634C292.035 326.61 290.754 327.099 289.475 327.099ZM262.375 302.069C260.422 300.117 260.422 296.951 262.375 294.999L362.781 194.593C364.732 192.64 367.9 192.64 369.851 194.593C371.804 196.545 371.804 199.711 369.851 201.663L269.446 302.069C267.495 304.022 264.327 304.022 262.375 302.069ZM238.811 278.505C236.858 276.553 236.858 273.387 238.811 271.435L303.618 206.628C305.569 204.675 308.737 204.675 310.688 206.628C312.641 208.58 312.641 211.746 310.688 213.698L245.881 278.505C243.93 280.458 240.762 280.458 238.811 278.505ZM218.781 256.405C214.374 256.405 212.08 251.034 215.246 247.87L299.649 163.467C301.6 161.514 304.768 161.514 306.719 163.467C308.672 165.419 308.672 168.585 306.719 170.537L222.316 254.94C221.34 255.917 220.06 256.405 218.781 256.405ZM191.681 231.375C189.728 229.423 189.728 226.257 191.681 224.305L292.087 123.899C294.038 121.946 297.206 121.946 299.157 123.899C301.11 125.851 301.11 129.017 299.157 130.969L198.751 231.375C196.8 233.328 193.632 233.328 191.681 231.375ZM168.117 207.81C166.164 205.858 166.164 202.692 168.117 200.74L215.246 153.61C217.197 151.657 220.365 151.657 222.316 153.61C224.269 155.562 224.269 158.728 222.316 160.68L175.187 207.81C173.236 209.763 170.068 209.764 168.117 207.81ZM144.551 184.246C142.598 182.294 142.598 179.128 144.551 177.176L244.958 76.7694C246.909 74.8164 250.077 74.8164 252.028 76.7694C253.981 78.7214 253.981 81.8874 252.028 83.8394L151.622 184.246C149.671 186.199 146.502 186.199 144.551 184.246Z" fill="#4F3130"/>
<path d="M416.676 342.87C411.636 333.697 410.901 322.827 414.658 313.048C425.877 283.792 429.422 255.109 426.358 227.794C418.311 156.086 378.072 131.32 343.757 90.6438C341.437 87.8938 342.44 83.0148 347.601 82.3698C349.703 82.0438 375.09 78.8288 375.222 78.8118C395.671 76.1758 398.814 47.6468 379.337 40.8428C378.507 40.8068 344.876 25.1968 301.99 44.8748L297.091 47.0308C294.565 48.1428 291.613 46.9938 290.501 44.4668C289.39 41.9398 290.537 38.9888 293.065 37.8768L297.892 35.7538C344.5 14.3668 381.954 31.3798 382.659 31.4098C407.322 40.1398 408.53 72.6488 388.032 84.7968C402.547 88.3878 418.671 95.6358 432.623 109.73C459.811 137.183 449.763 153.857 474.899 180.251C520.938 228.583 520.219 299.707 480.044 346.73C464.308 365.004 429.918 366.979 416.676 342.87ZM357.836 91.5738C390.028 127.427 428.371 156.056 436.296 226.678C439.756 257.526 435.037 287.838 423.993 316.631C421.293 323.659 421.821 331.467 425.44 338.055C434.901 355.282 459.24 353.78 472.537 340.119C509.049 297.225 510.422 232.04 467.66 187.145C441.196 159.361 450.411 141.9 425.518 116.764C402.684 93.6998 373.143 91.1268 357.836 91.5738ZM119.511 424.435L69.3121 374.235C67.3591 372.283 67.3591 369.117 69.3121 367.165C71.2631 365.212 74.4311 365.212 76.3821 367.165L126.581 417.365C128.534 419.317 128.534 422.483 126.581 424.435C124.63 426.388 121.462 426.389 119.511 424.435ZM99.4421 444.505L49.2421 394.306C47.2891 392.354 47.2891 389.188 49.2421 387.236C51.1931 385.283 54.3611 385.283 56.3121 387.236L106.512 437.435C108.465 439.387 108.465 442.553 106.512 444.505C104.561 446.458 101.393 446.458 99.4421 444.505Z" fill="#4F3130"/>
</svg>
